<?xml version="1.0" encoding="UTF-8"?>
<!DOCTYPE svg PUBLIC "-//W3C//DTD SVG 1.1//EN" "http://www.w3.org/Graphics/SVG/1.1/DTD/svg11.dtd">
<svg xmlns="http://www.w3.org/2000/svg" version="1.1" width="512px" height="512px" style="shape-rendering:geometricPrecision; text-rendering:geometricPrecision; image-rendering:optimizeQuality; fill-rule:evenodd; clip-rule:evenodd" xmlns:xlink="http://www.w3.org/1999/xlink">
<g><path style="opacity:0.999" fill="#269839" d="M 39.5,-0.5 C 183.5,-0.5 327.5,-0.5 471.5,-0.5C 492.5,5.16667 505.833,18.5 511.5,39.5C 511.5,183.5 511.5,327.5 511.5,471.5C 505.833,492.5 492.5,505.833 471.5,511.5C 327.5,511.5 183.5,511.5 39.5,511.5C 18.5,505.833 5.16667,492.5 -0.5,471.5C -0.5,327.5 -0.5,183.5 -0.5,39.5C 5.16667,18.5 18.5,5.16667 39.5,-0.5 Z"/></g>
<g><path style="opacity:1" fill="#259638" d="M 247.5,96.5 C 310.281,94.3056 359.114,118.972 394,170.5C 402.252,184.672 408.585,199.672 413,215.5C 471.767,238.667 496.434,281.667 487,344.5C 476.872,382.628 453.039,407.795 415.5,420C 408.286,421.98 400.953,423.313 393.5,424C 309.167,424.667 224.833,424.667 140.5,424C 94.2362,418.139 60.4029,394.639 39,353.5C 18.567,304.208 24.567,258.541 57,216.5C 74.9606,196.899 96.794,183.399 122.5,176C 151.197,129.307 192.864,102.807 247.5,96.5 Z"/></g>
<g><path style="opacity:1" fill="#249238" d="M 246.5,98.5 C 330.778,97.8731 385.945,137.54 412,217.5C 420.515,221.507 429.015,225.674 437.5,230C 476.87,256.076 493.037,292.576 486,339.5C 473.522,386.978 443.022,414.478 394.5,422C 309.5,422.667 224.5,422.667 139.5,422C 87.9611,414.334 53.1278,386.168 35,337.5C 19.5368,278.311 36.3702,230.811 85.5,195C 97.9072,187.645 110.907,181.645 124.5,177C 152.632,131.429 193.299,105.263 246.5,98.5 Z"/></g>
<g><path style="opacity:1" fill="#248d38" d="M 61.5,222.5 C 49.7353,238.033 41.7353,255.367 37.5,274.5C 28.5748,331.482 48.9081,374.648 98.5,404C 113.645,411.453 129.645,415.786 146.5,417C 226.833,417.667 307.167,417.667 387.5,417C 430.843,413.583 460.676,391.749 477,351.5C 490.424,301.871 475.924,262.705 433.5,234C 426.335,230.279 419.002,226.946 411.5,224C 410,222.5 408.5,221 407,219.5C 393.659,172.63 365.159,138.463 321.5,117C 319.866,116.506 318.199,116.34 316.5,116.5C 282.185,102.639 247.185,100.805 211.5,111C 202.054,114.31 193.054,118.477 184.5,123.5C 184.414,122.504 184.748,121.671 185.5,121C 245.698,90.8019 302.698,95.8019 356.5,136C 382.179,158.167 399.679,185.667 409,218.5C 410.167,219.667 411.333,220.833 412.5,222C 463.12,241.388 486.953,278.222 484,332.5C 475.781,374.716 451.281,402.549 410.5,416C 404.893,417.323 399.226,418.323 393.5,419C 309.5,419.667 225.5,419.667 141.5,419C 85.9511,410.646 50.4511,379.479 35,325.5C 27.3947,288.262 35.0613,254.595 58,224.5C 58.8159,223.177 59.9826,222.511 61.5,222.5 Z"/></g>
<g><path style="opacity:1" fill="#fefefe" d="M 316.5,116.5 C 331.145,123.494 344.478,132.494 356.5,143.5C 379.157,165.144 393.157,191.477 398.5,222.5C 401.5,223.167 404.5,223.833 407.5,224.5C 421.525,228.675 433.858,235.675 444.5,245.5C 451.965,251.971 457.965,259.638 462.5,268.5C 466.623,275.886 469.957,283.552 472.5,291.5C 476.297,311.651 474.63,331.318 467.5,350.5C 451.449,383.541 425.115,402.374 388.5,407C 305.833,407.667 223.167,407.667 140.5,407C 129.442,405.957 118.775,403.457 108.5,399.5C 96.8749,394.691 86.2082,388.358 76.5,380.5C 67.0741,371.743 58.7408,362.077 51.5,351.5C 44.8018,338.403 40.1351,324.736 37.5,310.5C 36.1931,298.503 36.1931,286.503 37.5,274.5C 41.7353,255.367 49.7353,238.033 61.5,222.5C 78.9252,201.944 100.925,188.777 127.5,183C 141.232,158.102 160.232,138.269 184.5,123.5C 193.054,118.477 202.054,114.31 211.5,111C 247.185,100.805 282.185,102.639 316.5,116.5 Z"/></g>
<g><path style="opacity:1" fill="#28823b" d="M 356.5,143.5 C 357.552,143.351 358.552,143.517 359.5,144C 375.163,158.667 387.33,175.834 396,195.5C 399.164,205.502 402.997,215.169 407.5,224.5C 404.5,223.833 401.5,223.167 398.5,222.5C 393.157,191.477 379.157,165.144 356.5,143.5 Z"/></g>
<g><path style="opacity:1" fill="#126b22" d="M 370.5,202.5 C 364.158,202.334 357.825,202.5 351.5,203C 351,203.5 350.5,204 350,204.5C 349.501,209.823 349.334,215.156 349.5,220.5C 347.539,213.913 346.872,206.913 347.5,199.5C 355.167,199.5 362.833,199.5 370.5,199.5C 370.5,200.5 370.5,201.5 370.5,202.5 Z"/></g>
<g><path style="opacity:1" fill="#1d9832" d="M 370.5,202.5 C 370.5,208.5 370.5,214.5 370.5,220.5C 363.5,220.5 356.5,220.5 349.5,220.5C 349.334,215.156 349.501,209.823 350,204.5C 350.5,204 351,203.5 351.5,203C 357.825,202.5 364.158,202.334 370.5,202.5 Z"/></g>
<g><path style="opacity:1" fill="#228736" d="M 316.5,116.5 C 318.199,116.34 319.866,116.506 321.5,117C 365.159,138.463 393.659,172.63 407,219.5C 408.5,221 410,222.5 411.5,224C 419.002,226.946 426.335,230.279 433.5,234C 475.924,262.705 490.424,301.871 477,351.5C 460.676,391.749 430.843,413.583 387.5,417C 307.167,417.667 226.833,417.667 146.5,417C 129.645,415.786 113.645,411.453 98.5,404C 48.9081,374.648 28.5748,331.482 37.5,274.5C 36.1931,286.503 36.1931,298.503 37.5,310.5C 41.558,346.792 58.558,375.292 88.5,396C 105.88,407.127 124.88,413.46 145.5,415C 229.853,415.972 314.186,415.639 398.5,414C 441.992,405.508 468.826,379.675 479,336.5C 484.373,301.284 474.206,271.45 448.5,247C 447.255,246.209 445.922,245.709 444.5,245.5C 433.858,235.675 421.525,228.675 407.5,224.5C 402.997,215.169 399.164,205.502 396,195.5C 387.33,175.834 375.163,158.667 359.5,144C 358.552,143.517 357.552,143.351 356.5,143.5C 344.478,132.494 331.145,123.494 316.5,116.5 Z"/></g>
<g><path style="opacity:1" fill="#0d631e" d="M 327.5,235.5 C 299.184,237.327 270.517,238.16 241.5,238C 241,238.5 240.5,239 240,239.5C 239.5,269.832 239.333,300.165 239.5,330.5C 239.167,330.5 238.833,330.5 238.5,330.5C 238.5,298.833 238.5,267.167 238.5,235.5C 268.167,235.5 297.833,235.5 327.5,235.5 Z"/></g>
<g><path style="opacity:1" fill="#258e34" d="M 328.5,238.5 C 328.5,245.167 328.5,251.833 328.5,258.5C 328.167,258.5 327.833,258.5 327.5,258.5C 327.5,252.5 327.5,246.5 327.5,240.5C 299.167,240.5 270.833,240.5 242.5,240.5C 242.5,270.5 242.5,300.5 242.5,330.5C 248.833,330.5 255.167,330.5 261.5,330.5C 253.833,331.833 246.167,331.833 238.5,330.5C 238.833,330.5 239.167,330.5 239.5,330.5C 240.332,300.669 240.832,270.669 241,240.5C 241.5,240 242,239.5 242.5,239C 271.165,238.5 299.831,238.333 328.5,238.5 Z"/></g>
<g><path style="opacity:1" fill="#0e6920" d="M 196.5,235.5 C 203.833,235.5 211.167,235.5 218.5,235.5C 218.5,236.5 218.5,237.5 218.5,238.5C 212.158,238.334 205.825,238.5 199.5,239C 198.944,239.383 198.611,239.883 198.5,240.5C 197.668,263.33 197.168,286.33 197,309.5C 183.579,310.49 170.079,310.823 156.5,310.5C 155.167,310.5 154.5,309.833 154.5,308.5C 168.5,308.5 182.5,308.5 196.5,308.5C 196.5,284.167 196.5,259.833 196.5,235.5 Z"/></g>
<g><path style="opacity:1" fill="#acd7b3" d="M 218.5,235.5 C 219.498,267.329 219.832,299.329 219.5,331.5C 215.5,331.5 211.5,331.5 207.5,331.5C 210.962,330.518 214.629,330.185 218.5,330.5C 218.5,300.5 218.5,270.5 218.5,240.5C 218.5,239.833 218.5,239.167 218.5,238.5C 218.5,237.5 218.5,236.5 218.5,235.5 Z"/></g>
<g><path style="opacity:1" fill="#1a6a28" d="M 370.5,237.5 C 363.245,237.187 356.079,237.52 349,238.5C 348.5,269.165 348.333,299.832 348.5,330.5C 348.167,330.5 347.833,330.5 347.5,330.5C 347.5,298.833 347.5,267.167 347.5,235.5C 355.573,234.868 363.24,235.535 370.5,237.5 Z"/></g>
<g><path style="opacity:1" fill="#2d8a38" d="M 370.5,238.5 C 370.5,238.833 370.5,239.167 370.5,239.5C 363.91,239.189 357.41,239.522 351,240.5C 350.5,270.498 350.333,300.498 350.5,330.5C 357.167,330.5 363.833,330.5 370.5,330.5C 362.833,331.833 355.167,331.833 347.5,330.5C 347.833,330.5 348.167,330.5 348.5,330.5C 349.332,300.336 349.832,270.003 350,239.5C 356.744,238.521 363.578,238.188 370.5,238.5 Z"/></g>
<g><path style="opacity:1" fill="#307838" d="M 151.5,235.5 C 151.5,236.5 151.5,237.5 151.5,238.5C 144.578,238.188 137.744,238.521 131,239.5C 130.5,269.832 130.333,300.165 130.5,330.5C 129.833,330.5 129.5,330.833 129.5,331.5C 128.502,299.671 128.168,267.671 128.5,235.5C 136.167,235.5 143.833,235.5 151.5,235.5 Z"/></g>
<g><path style="opacity:1" fill="#168229" d="M 151.5,238.5 C 151.5,238.833 151.5,239.167 151.5,239.5C 145.242,239.19 139.076,239.524 133,240.5C 133.161,270.85 132.327,300.85 130.5,330.5C 130.333,300.165 130.5,269.832 131,239.5C 137.744,238.521 144.578,238.188 151.5,238.5 Z"/></g>
<g><path style="opacity:1" fill="#1f9a34" d="M 151.5,239.5 C 151.5,262.5 151.5,285.5 151.5,308.5C 151.297,310.39 151.963,311.89 153.5,313C 168.5,313.667 183.5,313.667 198.5,313C 199,312.5 199.5,312 200,311.5C 200.333,288.167 200.667,264.833 201,241.5C 206.741,240.525 212.575,240.192 218.5,240.5C 218.5,270.5 218.5,300.5 218.5,330.5C 214.629,330.185 210.962,330.518 207.5,331.5C 181.5,331.5 155.5,331.5 129.5,331.5C 129.5,330.833 129.833,330.5 130.5,330.5C 132.327,300.85 133.161,270.85 133,240.5C 139.076,239.524 145.242,239.19 151.5,239.5 Z"/></g>
<g><path style="opacity:1" fill="#147a26" d="M 198.5,240.5 C 198.667,263.836 198.5,287.169 198,310.5C 184.069,311.83 170.235,311.83 156.5,310.5C 170.079,310.823 183.579,310.49 197,309.5C 197.168,286.33 197.668,263.33 198.5,240.5 Z"/></g>
<g><path style="opacity:1" fill="#94ca9d" d="M 151.5,235.5 C 152.167,259.5 152.833,283.5 153.5,307.5C 153.5,307.833 153.5,308.167 153.5,308.5C 152.833,308.5 152.167,308.5 151.5,308.5C 151.5,285.5 151.5,262.5 151.5,239.5C 151.5,239.167 151.5,238.833 151.5,238.5C 151.5,237.5 151.5,236.5 151.5,235.5 Z"/></g>
<g><path style="opacity:1" fill="#7aa681" d="M 196.5,235.5 C 196.5,259.833 196.5,284.167 196.5,308.5C 182.5,308.5 168.5,308.5 154.5,308.5C 154.167,308.5 153.833,308.5 153.5,308.5C 153.5,308.167 153.5,307.833 153.5,307.5C 167.5,307.5 181.5,307.5 195.5,307.5C 195.169,283.328 195.502,259.328 196.5,235.5 Z"/></g>
<g><path style="opacity:1" fill="#1f9a34" d="M 327.5,258.5 C 320.167,258.5 312.833,258.5 305.5,258.5C 290.833,258.5 276.167,258.5 261.5,258.5C 261.5,282.5 261.5,306.5 261.5,330.5C 255.167,330.5 248.833,330.5 242.5,330.5C 242.5,300.5 242.5,270.5 242.5,240.5C 270.833,240.5 299.167,240.5 327.5,240.5C 327.5,246.5 327.5,252.5 327.5,258.5 Z"/></g>
<g><path style="opacity:1" fill="#107022" d="M 370.5,237.5 C 370.5,237.833 370.5,238.167 370.5,238.5C 363.578,238.188 356.744,238.521 350,239.5C 349.832,270.003 349.332,300.336 348.5,330.5C 348.333,299.832 348.5,269.165 349,238.5C 356.079,237.52 363.245,237.187 370.5,237.5 Z"/></g>
<g><path style="opacity:1" fill="#1c9832" d="M 370.5,239.5 C 370.5,269.833 370.5,300.167 370.5,330.5C 363.833,330.5 357.167,330.5 350.5,330.5C 350.333,300.498 350.5,270.498 351,240.5C 357.41,239.522 363.91,239.189 370.5,239.5 Z"/></g>
<g><path style="opacity:1" fill="#208135" d="M 444.5,245.5 C 445.922,245.709 447.255,246.209 448.5,247C 474.206,271.45 484.373,301.284 479,336.5C 468.826,379.675 441.992,405.508 398.5,414C 314.186,415.639 229.853,415.972 145.5,415C 124.88,413.46 105.88,407.127 88.5,396C 58.558,375.292 41.558,346.792 37.5,310.5C 40.1351,324.736 44.8018,338.403 51.5,351.5C 71.4573,387.67 102.124,408.17 143.5,413C 225.833,413.667 308.167,413.667 390.5,413C 427.863,409.076 454.696,390.243 471,356.5C 482.611,326.558 480.611,297.558 465,269.5C 464.329,268.748 463.496,268.414 462.5,268.5C 457.965,259.638 451.965,251.971 444.5,245.5 Z"/></g>
<g><path style="opacity:1" fill="#269938" d="M 305.5,258.5 C 312.833,258.5 320.167,258.5 327.5,258.5C 327.5,282.5 327.5,306.5 327.5,330.5C 320.167,330.5 312.833,330.5 305.5,330.5C 305.5,306.5 305.5,282.5 305.5,258.5 Z"/></g>
<g><path style="opacity:1" fill="#7abf84" d="M 327.5,258.5 C 327.833,258.5 328.167,258.5 328.5,258.5C 328.5,282.833 328.5,307.167 328.5,331.5C 320.648,331.825 312.982,331.492 305.5,330.5C 312.833,330.5 320.167,330.5 327.5,330.5C 327.5,306.5 327.5,282.5 327.5,258.5 Z"/></g>
<g><path style="opacity:1" fill="#127424" d="M 327.5,235.5 C 328.404,236.209 328.737,237.209 328.5,238.5C 299.831,238.333 271.165,238.5 242.5,239C 242,239.5 241.5,240 241,240.5C 240.832,270.669 240.332,300.669 239.5,330.5C 239.333,300.165 239.5,269.832 240,239.5C 240.5,239 241,238.5 241.5,238C 270.517,238.16 299.184,237.327 327.5,235.5 Z"/></g>
<g><path style="opacity:1" fill="#1d7934" d="M 462.5,268.5 C 463.496,268.414 464.329,268.748 465,269.5C 480.611,297.558 482.611,326.558 471,356.5C 454.696,390.243 427.863,409.076 390.5,413C 308.167,413.667 225.833,413.667 143.5,413C 102.124,408.17 71.4573,387.67 51.5,351.5C 58.7408,362.077 67.0741,371.743 76.5,380.5C 77.2026,382.716 78.5359,384.549 80.5,386C 97.7796,399.766 117.446,408.099 139.5,411C 224.833,411.667 310.167,411.667 395.5,411C 435.422,404.461 461.589,381.961 474,343.5C 479.023,325.863 478.523,308.53 472.5,291.5C 469.957,283.552 466.623,275.886 462.5,268.5 Z"/></g>
<g><path style="opacity:1" fill="#198d2e" d="M 218.5,238.5 C 218.5,239.167 218.5,239.833 218.5,240.5C 212.575,240.192 206.741,240.525 201,241.5C 200.667,264.833 200.333,288.167 200,311.5C 199.5,312 199,312.5 198.5,313C 183.5,313.667 168.5,313.667 153.5,313C 151.963,311.89 151.297,310.39 151.5,308.5C 152.167,308.5 152.833,308.5 153.5,308.5C 153.833,308.5 154.167,308.5 154.5,308.5C 154.5,309.833 155.167,310.5 156.5,310.5C 170.235,311.83 184.069,311.83 198,310.5C 198.5,287.169 198.667,263.836 198.5,240.5C 198.611,239.883 198.944,239.383 199.5,239C 205.825,238.5 212.158,238.334 218.5,238.5 Z"/></g>
<g><path style="opacity:1" fill="#1e6c35" d="M 467.5,350.5 C 459.079,373.669 443.413,390.502 420.5,401C 412.177,404.581 403.51,406.914 394.5,408C 306.5,408.667 218.5,408.667 130.5,408C 123.255,406.606 116.255,404.439 109.5,401.5C 108.702,401.043 108.369,400.376 108.5,399.5C 118.775,403.457 129.442,405.957 140.5,407C 223.167,407.667 305.833,407.667 388.5,407C 425.115,402.374 451.449,383.541 467.5,350.5 Z"/></g>
<g><path style="opacity:1" fill="#196f31" d="M 472.5,291.5 C 478.523,308.53 479.023,325.863 474,343.5C 461.589,381.961 435.422,404.461 395.5,411C 310.167,411.667 224.833,411.667 139.5,411C 117.446,408.099 97.7796,399.766 80.5,386C 78.5359,384.549 77.2026,382.716 76.5,380.5C 86.2082,388.358 96.8749,394.691 108.5,399.5C 108.369,400.376 108.702,401.043 109.5,401.5C 116.255,404.439 123.255,406.606 130.5,408C 218.5,408.667 306.5,408.667 394.5,408C 403.51,406.914 412.177,404.581 420.5,401C 443.413,390.502 459.079,373.669 467.5,350.5C 474.63,331.318 476.297,311.651 472.5,291.5 Z"/></g>
</svg>
